<svg xmlns="http://www.w3.org/2000/svg" width="40" height="40" viewBox="0 0 40 40">
  <path id="close-circle-svgrepo-com_1_" data-name="close-circle-svgrepo-com (1)" d="M42,22A20,20,0,1,1,22,2,20,20,0,0,1,42,22ZM15.939,15.939a1.5,1.5,0,0,1,2.121,0L22,19.879l3.939-3.939a1.5,1.5,0,0,1,2.121,2.121L24.121,22l3.939,3.939a1.5,1.5,0,0,1-2.121,2.121L22,24.121l-3.939,3.939a1.5,1.5,0,0,1-2.121-2.121L19.879,22l-3.939-3.939A1.5,1.5,0,0,1,15.939,15.939Z" transform="translate(-2 -2)" fill="#1492e6" fill-rule="evenodd"/>
</svg>
