<svg id="Group_159" data-name="Group 159" xmlns="http://www.w3.org/2000/svg" width="30" height="30" viewBox="0 0 30 30">
  <path id="Path_67805" data-name="Path 67805" d="M2.2,2.2C4.393,0,7.929,0,15,0S25.607,0,27.8,2.2,30,7.929,30,15s0,10.607-2.2,12.8S22.071,30,15,30,4.393,30,2.2,27.8,0,22.071,0,15,0,4.393,2.2,2.2Z" transform="translate(0 0)" fill="#1492e6"/>
  <path id="Path_67806" data-name="Path 67806" d="M2.421.415A1.418,1.418,0,0,0,.415,2.421L6.087,8.092a1.418,1.418,0,0,0,2.005,0l5.672-5.672A1.418,1.418,0,0,0,11.759.415L7.09,5.084Z" transform="translate(7.964 10.753)" fill="#fff"/>
</svg>
