<svg xmlns="http://www.w3.org/2000/svg" width="40" height="40" viewBox="0 0 40 40">
  <path id="sun-solid" d="M11.722.06a1.263,1.263,0,0,0-.75.93L9.418,9.418.989,10.964a1.263,1.263,0,0,0-.93.75A1.241,1.241,0,0,0,.185,12.9l4.866,7.061L.185,27.017A1.241,1.241,0,0,0,.06,28.2a1.263,1.263,0,0,0,.93.75l8.428,1.554,1.554,8.428a1.263,1.263,0,0,0,.75.93,1.241,1.241,0,0,0,1.187-.125l7.054-4.866,7.054,4.866a1.241,1.241,0,0,0,1.187.125,1.263,1.263,0,0,0,.75-.93l1.554-8.428,8.428-1.554a1.263,1.263,0,0,0,.93-.75,1.241,1.241,0,0,0-.125-1.187l-4.866-7.054,4.866-7.054a1.241,1.241,0,0,0,.125-1.187,1.263,1.263,0,0,0-.93-.75L30.508,9.418,28.954.989A1.263,1.263,0,0,0,28.2.06a1.241,1.241,0,0,0-1.187.125L19.963,5.051,12.909.185A1.241,1.241,0,0,0,11.722.06Zm15.74,19.9a7.5,7.5,0,1,0-7.5,7.5A7.5,7.5,0,0,0,27.462,19.963Zm-17.5,0a10,10,0,1,1,10,10A10,10,0,0,1,9.964,19.963Z" transform="translate(0.037 0.037)" fill="#1492e6"/>
</svg>
