<svg id="Group_159" data-name="Group 159" xmlns="http://www.w3.org/2000/svg" width="30" height="30" viewBox="0 0 30 30">
  <path id="Path_67805" data-name="Path 67805" d="M2.2,27.8C4.393,30,7.929,30,15,30s10.607,0,12.8-2.2S30,22.071,30,15,30,4.393,27.8,2.2,22.071,0,15,0,4.393,0,2.2,2.2,0,7.929,0,15,0,25.607,2.2,27.8Z" transform="translate(0 0)" fill="#1492e6"/>
  <path id="Path_67806" data-name="Path 67806" d="M2.421,8.093A1.418,1.418,0,0,1,.415,6.087L6.087.415a1.418,1.418,0,0,1,2.005,0l5.672,5.672a1.418,1.418,0,0,1-2.005,2.005L7.09,3.423Z" transform="translate(7.964 10.739)" fill="#fff"/>
</svg>
